<svg width="288" height="256" viewBox="0 0 288 256" fill="none" xmlns="http://www.w3.org/2000/svg">
<g opacity="0.1">
<path d="M194.117 251.541C162.819 259.925 129.523 256.406 100.67 241.664C71.8159 226.922 49.4534 202.005 37.9062 171.731L2.30941 181.269L0 172.642L149.249 132.67C165.401 132.006 181.299 136.862 194.324 146.438C207.349 156.014 216.725 169.739 220.908 185.355C216.73 169.744 217.988 153.175 224.475 138.374C230.963 123.573 242.294 111.42 256.605 103.913L287.761 95.5635C288.438 98.4836 289.026 101.415 289.493 104.335C294.623 136.324 287.712 169.078 270.095 196.268C252.479 223.457 225.409 243.15 194.117 251.541Z" fill="white"/>
<path d="M322.025 83.3488L258.326 100.414C241.765 101.703 225.275 97.1563 211.714 87.5622C198.153 77.9681 188.377 63.9314 184.079 47.8853C188.374 63.9287 186.925 80.9687 179.982 96.0563C173.04 111.144 161.041 123.329 146.062 130.504L34.2644 160.482C33.5834 157.522 33.006 154.594 32.5323 151.7C27.3882 119.706 34.2924 86.942 51.909 59.7445C69.5256 32.5471 96.6028 12.8494 127.903 4.46183C159.203 -3.92574 192.502 -0.407191 221.357 14.3369C250.213 29.081 272.576 54.0028 284.119 84.2815L319.716 74.7439L322.025 83.3488Z" fill="white"/>
</g>
</svg>
