<svg width="116" height="77" viewBox="0 0 116 77" fill="none" xmlns="http://www.w3.org/2000/svg">
<path d="M59.9241 44.3898C54.4009 45.8693 48.5252 45.2483 43.4334 42.6468C38.3415 40.0454 34.3951 35.6482 32.3574 30.3057L26.0756 31.9888L25.668 30.4664L52.0062 23.4125C54.8567 23.2953 57.6621 24.1522 59.9606 25.8421C62.2592 27.532 63.9138 29.9542 64.6521 32.7099C63.9147 29.955 64.1367 27.0311 65.2816 24.4191C66.4264 21.8071 68.426 19.6625 70.9515 18.3377L76.4496 16.8643C76.5691 17.3796 76.673 17.8969 76.7553 18.4122C77.6606 24.0573 76.4409 29.8375 73.3322 34.6357C70.2234 39.4338 65.4462 42.9091 59.9241 44.3898Z" fill="white"/>
<path d="M82.4963 14.7087L71.2553 17.7203C68.3327 17.9477 65.4226 17.1453 63.0295 15.4522C60.6365 13.7591 58.9112 11.2821 58.1529 8.4504C58.9108 11.2816 58.655 14.2887 57.4299 16.9512C56.2047 19.6137 54.0872 21.7641 51.4439 23.0302L31.7148 28.3206C31.5946 27.7981 31.4927 27.2815 31.4091 26.7707C30.5013 21.1248 31.7197 15.3428 34.8285 10.5432C37.9374 5.74363 42.7157 2.26756 48.2393 0.787387C53.7629 -0.692782 59.6391 -0.0718577 64.7314 2.53006C69.8236 5.13197 73.7699 9.52997 75.807 14.8733L82.0888 13.1902L82.4963 14.7087Z" fill="white"/>
<path d="M7.61029 58.981C13.2514 58.981 15.7809 60.764 15.7809 64.9787H12.3853C12.3853 62.7743 10.5043 62.1258 6.97152 62.1258C3.89136 62.1258 3.30746 62.9683 3.30746 63.7775C3.30746 64.6867 4.67904 65.3451 8.3 65.9838C12.9046 66.7931 15.9847 67.279 15.9847 71.2036C15.9847 74.7697 13.3905 76.1629 8.49594 76.1629C2.61776 76.1629 0 74.3798 0 70.1652H3.40543C3.40543 72.2735 5.6411 72.9867 8.98186 72.9867C11.7054 72.9867 12.7419 72.3048 12.7419 71.2997C12.7419 69.8419 10.9275 69.7772 7.52211 69.1933C3.9952 68.6408 0.0646633 67.7022 0.0646633 63.8442C0.0548663 60.4074 2.61775 58.981 7.61029 58.981Z" fill="white"/>
<path d="M26.1226 62.1258C24.2749 62.1258 21.9079 62.3217 21.9079 65.0649H18.5025C18.5025 60.6896 21.422 58.9712 26.1226 58.9712C31.5364 58.9712 34.1953 60.6896 34.1953 65.8761V75.673H30.4725V73.4726C29.8239 75.0617 28.2995 76.1629 24.7334 76.1629C20.6481 76.1629 17.6012 75.0931 17.6012 71.0685C17.6012 67.8276 20.1621 66.4659 24.7334 65.974L30.4725 65.3862V65.3216C30.4666 62.3825 27.9056 62.1258 26.1226 62.1258ZM25.2801 68.6094C23.1718 68.8367 21.4867 69.4206 21.4867 71.0077C21.4867 72.2402 22.4664 72.9867 25.2467 72.9867C28.8775 72.9867 30.3039 71.429 30.4666 70.2299V68.0902L25.2801 68.6094Z" fill="white"/>
<path d="M40.0303 62.8705H36.1409V59.467H40.0303L41.3274 52.9814H43.759L43.7277 59.467H51.8651V62.8705H43.759V69.4208C43.759 71.1058 44.051 72.6616 46.028 72.6616C47.4878 72.6616 48.5909 71.9484 48.5909 69.5265H51.9944C51.9944 74.5524 49.6921 76.1728 45.8987 76.1728C42.074 76.1728 40.0205 74.3584 40.0205 69.9165L40.0303 62.8705Z" fill="white"/>
<path d="M57.7648 59.4668V68.1881C57.7648 70.9116 58.6073 72.6614 62.0755 72.6614C65.1556 72.6614 66.778 70.9116 66.778 67.5669V59.4629H70.5009V75.6729H66.778V73.404C65.6768 75.1537 63.8605 76.1589 61.039 76.1589C56.3364 76.1589 54.0361 74.0192 54.0361 68.4761V59.4629L57.7648 59.4668Z" fill="white"/>
<path d="M73.7476 75.6769V59.4669H77.4705V61.7026C78.4756 59.9842 80.1294 58.981 82.3689 58.981C86.2877 58.981 88.3999 61.2813 88.3999 66.0152H84.9945C84.9945 63.9088 83.958 62.4491 81.5578 62.4491C78.9968 62.4491 77.4724 64.2008 77.4724 67.5435V75.6809L73.7476 75.6769Z" fill="white"/>
<path d="M103.413 75.6769V66.9557C103.413 64.2008 102.57 62.4491 99.102 62.4491C96.0219 62.4491 94.3995 64.2008 94.3995 67.5435V75.6809H90.6766V59.4708H94.3995V61.7398C95.4713 59.9881 97.319 58.9849 100.139 58.9849C104.841 58.9849 107.141 61.1245 107.141 66.6363V75.6809L103.413 75.6769Z" fill="white"/>
<path d="M116 59.8591C116 60.4765 115.817 61.08 115.473 61.5931C115.13 62.1062 114.642 62.5057 114.071 62.7411C113.5 62.9764 112.872 63.037 112.267 62.9151C111.662 62.7932 111.107 62.4944 110.671 62.0565C110.236 61.6185 109.941 61.0612 109.823 60.4552C109.705 59.8492 109.769 59.2218 110.008 58.6525C110.247 58.0833 110.65 57.5978 111.165 57.2576C111.68 56.9174 112.285 56.7379 112.902 56.7418C113.726 56.7459 114.514 57.0763 115.095 57.6606C115.676 58.2449 116.001 59.0354 116 59.8591ZM110.281 59.8591C110.281 60.3742 110.433 60.8776 110.719 61.3059C111.006 61.7341 111.412 62.0679 111.888 62.265C112.364 62.4621 112.887 62.5136 113.393 62.4132C113.898 62.3127 114.362 62.0647 114.726 61.7005C115.09 61.3363 115.338 60.8723 115.439 60.3672C115.539 59.862 115.487 59.3385 115.29 58.8626C115.093 58.3868 114.76 57.9801 114.331 57.694C113.903 57.4078 113.4 57.2551 112.885 57.2551C112.194 57.2556 111.532 57.5302 111.044 58.0184C110.556 58.5066 110.281 59.1687 110.281 59.8591Z" fill="white"/>
<path d="M113.602 59.9393L113.617 59.9511C113.775 60.056 113.904 60.198 113.994 60.3645C114.052 60.4718 114.099 60.5847 114.135 60.7015C114.18 60.8446 114.215 60.9915 114.246 61.1365C114.278 61.2815 114.301 61.4187 114.325 61.5597C114.325 61.5715 114.325 61.5832 114.325 61.595H114.307H113.835L113.823 61.5147C113.793 61.3048 113.746 61.0977 113.682 60.8955C113.644 60.7762 113.595 60.6607 113.535 60.5507C113.493 60.4697 113.44 60.3945 113.378 60.3273C113.311 60.2527 113.229 60.1926 113.137 60.1509C113.054 60.1142 112.964 60.0955 112.873 60.0961H112.25C112.25 60.0961 112.25 60.1078 112.25 60.1137V61.5989H111.762C111.762 61.5989 111.762 61.5872 111.762 61.5813V58.2072H111.787L112.105 58.1622C112.193 58.1504 112.283 58.1406 112.373 58.1328C112.463 58.1249 112.598 58.119 112.712 58.1171C112.826 58.1151 112.908 58.1171 113.004 58.1171C113.192 58.1296 113.378 58.1692 113.555 58.2347C113.683 58.2803 113.804 58.3465 113.911 58.4306C114.023 58.5217 114.109 58.6416 114.158 58.7774C114.185 58.853 114.201 58.9322 114.205 59.0125C114.212 59.1084 114.204 59.2048 114.184 59.2986C114.143 59.4764 114.044 59.6352 113.901 59.7493C113.82 59.8158 113.731 59.8711 113.635 59.9139L113.602 59.9393ZM112.254 59.7199H112.804C112.873 59.7199 112.943 59.7199 113.012 59.7199C113.103 59.7128 113.194 59.6977 113.282 59.6748C113.364 59.6532 113.441 59.6181 113.512 59.571C113.61 59.5023 113.68 59.3998 113.708 59.2829C113.725 59.2059 113.731 59.1265 113.723 59.0478C113.718 58.9888 113.703 58.9312 113.678 58.8773C113.636 58.7881 113.567 58.7137 113.482 58.6638C113.421 58.6272 113.355 58.5988 113.286 58.5795C113.165 58.5438 113.04 58.5234 112.914 58.5188C112.841 58.5188 112.767 58.5188 112.694 58.5188C112.622 58.5188 112.575 58.5188 112.516 58.5188C112.457 58.5188 112.361 58.5188 112.283 58.5325C112.27 58.5296 112.257 58.5296 112.244 58.5325C112.252 58.5599 112.25 59.6866 112.254 59.7199Z" fill="white"/>
</svg>
